<svg width="171" height="36" viewBox="0 0 171 36" fill="none" xmlns="http://www.w3.org/2000/svg">
<path d="M0.00800001 23.198C0.00800001 20.762 0.512 18.634 1.52 16.814C2.528 14.994 3.928 13.594 5.72 12.614C7.54 11.634 9.612 11.144 11.936 11.144C14.932 11.144 17.452 11.97 19.496 13.622C21.54 15.246 22.856 17.528 23.444 20.468H14.708C14.204 18.928 13.224 18.158 11.768 18.158C10.732 18.158 9.906 18.592 9.29 19.46C8.702 20.3 8.408 21.546 8.408 23.198C8.408 24.85 8.702 26.11 9.29 26.978C9.906 27.846 10.732 28.28 11.768 28.28C13.252 28.28 14.232 27.51 14.708 25.97H23.444C22.856 28.882 21.54 31.164 19.496 32.816C17.452 34.468 14.932 35.294 11.936 35.294C9.612 35.294 7.54 34.804 5.72 33.824C3.928 32.844 2.528 31.444 1.52 29.624C0.512 27.804 0.00800001 25.662 0.00800001 23.198ZM37.8257 35.294C35.4737 35.294 33.3597 34.804 31.4837 33.824C29.6357 32.844 28.1797 31.444 27.1157 29.624C26.0517 27.804 25.5197 25.662 25.5197 23.198C25.5197 20.762 26.0517 18.634 27.1157 16.814C28.2077 14.994 29.6777 13.594 31.5257 12.614C33.4017 11.634 35.5157 11.144 37.8677 11.144C40.2197 11.144 42.3197 11.634 44.1677 12.614C46.0437 13.594 47.5137 14.994 48.5777 16.814C49.6697 18.634 50.2157 20.762 50.2157 23.198C50.2157 25.634 49.6697 27.776 48.5777 29.624C47.5137 31.444 46.0437 32.844 44.1677 33.824C42.2917 34.804 40.1777 35.294 37.8257 35.294ZM37.8257 28.154C38.9737 28.154 39.9257 27.734 40.6817 26.894C41.4657 26.026 41.8577 24.794 41.8577 23.198C41.8577 21.602 41.4657 20.384 40.6817 19.544C39.9257 18.704 38.9877 18.284 37.8677 18.284C36.7477 18.284 35.8097 18.704 35.0537 19.544C34.2977 20.384 33.9197 21.602 33.9197 23.198C33.9197 24.822 34.2837 26.054 35.0117 26.894C35.7397 27.734 36.6777 28.154 37.8257 28.154ZM64.8629 27.23L69.2729 11.438H78.0509L69.9449 35H59.6969L51.5909 11.438H60.3689L64.8629 27.23ZM84.9983 9.254C83.5423 9.254 82.3663 8.862 81.4703 8.078C80.6023 7.266 80.1683 6.258 80.1683 5.054C80.1683 3.822 80.6023 2.8 81.4703 1.988C82.3663 1.176 83.5423 0.769998 84.9983 0.769998C86.4263 0.769998 87.5743 1.176 88.4423 1.988C89.3383 2.8 89.7863 3.822 89.7863 5.054C89.7863 6.258 89.3383 7.266 88.4423 8.078C87.5743 8.862 86.4263 9.254 84.9983 9.254ZM89.0723 11.438V35H80.8403V11.438H89.0723ZM92.4162 23.198C92.4162 20.762 92.8502 18.634 93.7182 16.814C94.6142 14.994 95.8322 13.594 97.3722 12.614C98.9122 11.634 100.62 11.144 102.496 11.144C104.008 11.144 105.352 11.466 106.528 12.11C107.732 12.726 108.67 13.58 109.342 14.672V3.92H117.616V35H109.342V31.724C108.698 32.816 107.788 33.684 106.612 34.328C105.436 34.972 104.05 35.294 102.454 35.294C100.578 35.294 98.8702 34.804 97.3302 33.824C95.8182 32.844 94.6142 31.444 93.7182 29.624C92.8502 27.776 92.4162 25.634 92.4162 23.198ZM109.384 23.198C109.384 21.686 108.964 20.496 108.124 19.628C107.312 18.76 106.304 18.326 105.1 18.326C103.868 18.326 102.846 18.76 102.034 19.628C101.222 20.468 100.816 21.658 100.816 23.198C100.816 24.71 101.222 25.914 102.034 26.81C102.846 27.678 103.868 28.112 105.1 28.112C106.304 28.112 107.312 27.678 108.124 26.81C108.964 25.942 109.384 24.738 109.384 23.198ZM131.488 35H130.158L122.805 23.828V35H121.475V21.719H122.805L130.158 32.872V21.719H131.488V35ZM135.83 22.802V27.761H140.865V28.863H135.83V33.898H141.435V35H134.5V21.7H141.435V22.802H135.83ZM160.168 21.719L156.406 35H154.924L151.58 23.676L148.16 35L146.716 35.019L143.03 21.719H144.455L147.495 33.366L150.896 21.719H152.378L155.684 33.366L158.743 21.719H160.168ZM166.231 35.133C165.357 35.133 164.584 34.981 163.913 34.677C163.254 34.373 162.735 33.9487 162.355 33.404C161.975 32.8593 161.772 32.2513 161.747 31.58H163.153C163.216 32.226 163.501 32.796 164.008 33.29C164.514 33.7713 165.255 34.012 166.231 34.012C167.13 34.012 167.839 33.784 168.359 33.328C168.891 32.8593 169.157 32.2703 169.157 31.561C169.157 30.991 169.011 30.535 168.72 30.193C168.428 29.8383 168.067 29.5787 167.637 29.414C167.206 29.2367 166.611 29.0467 165.851 28.844C164.964 28.6033 164.261 28.369 163.742 28.141C163.222 27.913 162.779 27.5583 162.412 27.077C162.044 26.5957 161.861 25.9433 161.861 25.12C161.861 24.436 162.038 23.828 162.393 23.296C162.747 22.7513 163.248 22.327 163.894 22.023C164.54 21.719 165.281 21.567 166.117 21.567C167.345 21.567 168.333 21.871 169.081 22.479C169.841 23.0743 170.278 23.847 170.392 24.797H168.948C168.859 24.2523 168.561 23.771 168.055 23.353C167.548 22.9223 166.864 22.707 166.003 22.707C165.205 22.707 164.54 22.9223 164.008 23.353C163.476 23.771 163.21 24.3473 163.21 25.082C163.21 25.6393 163.355 26.089 163.647 26.431C163.938 26.773 164.299 27.0327 164.73 27.21C165.173 27.3873 165.768 27.5773 166.516 27.78C167.377 28.0207 168.074 28.2613 168.606 28.502C169.138 28.73 169.587 29.0847 169.955 29.566C170.322 30.0473 170.506 30.6933 170.506 31.504C170.506 32.1247 170.341 32.7137 170.012 33.271C169.682 33.8283 169.195 34.278 168.549 34.62C167.903 34.962 167.13 35.133 166.231 35.133Z" fill="#6AA703"/>
</svg>
