<svg width="183" height="63" viewBox="0 0 183 63" fill="none" xmlns="http://www.w3.org/2000/svg">
<path d="M11.046 22.144C12.642 22.144 14.028 22.466 15.204 23.11C16.408 23.754 17.332 24.622 17.976 25.714V22.438H26.208V45.748C26.208 47.96 25.788 49.948 24.948 51.712C24.108 53.504 22.792 54.932 21 55.996C19.236 57.06 16.996 57.592 14.28 57.592C10.64 57.592 7.728 56.738 5.544 55.03C3.36 53.322 2.114 50.998 1.806 48.058H9.912C10.08 48.814 10.5 49.402 11.172 49.822C11.844 50.242 12.712 50.452 13.776 50.452C16.576 50.452 17.976 48.884 17.976 45.748V42.724C17.332 43.816 16.408 44.684 15.204 45.328C14.028 45.972 12.642 46.294 11.046 46.294C9.17 46.294 7.462 45.804 5.922 44.824C4.41 43.844 3.206 42.444 2.31 40.624C1.442 38.776 1.008 36.634 1.008 34.198C1.008 31.762 1.442 29.634 2.31 27.814C3.206 25.994 4.41 24.594 5.922 23.614C7.462 22.634 9.17 22.144 11.046 22.144ZM17.976 34.198C17.976 32.686 17.556 31.496 16.716 30.628C15.904 29.76 14.896 29.326 13.692 29.326C12.46 29.326 11.438 29.76 10.626 30.628C9.814 31.468 9.408 32.658 9.408 34.198C9.408 35.71 9.814 36.914 10.626 37.81C11.438 38.678 12.46 39.112 13.692 39.112C14.896 39.112 15.904 38.678 16.716 37.81C17.556 36.942 17.976 35.738 17.976 34.198ZM29.5549 34.198C29.5549 31.762 29.9889 29.634 30.8569 27.814C31.7529 25.994 32.9569 24.594 34.4689 23.614C36.0089 22.634 37.7169 22.144 39.5929 22.144C41.2169 22.144 42.6169 22.466 43.7929 23.11C44.9689 23.754 45.8789 24.622 46.5229 25.714V22.438H54.7549V46H46.5229V42.724C45.8789 43.816 44.9549 44.684 43.7509 45.328C42.5749 45.972 41.1889 46.294 39.5929 46.294C37.7169 46.294 36.0089 45.804 34.4689 44.824C32.9569 43.844 31.7529 42.444 30.8569 40.624C29.9889 38.776 29.5549 36.634 29.5549 34.198ZM46.5229 34.198C46.5229 32.686 46.1029 31.496 45.2629 30.628C44.4509 29.76 43.4429 29.326 42.2389 29.326C41.0069 29.326 39.9849 29.76 39.1729 30.628C38.3609 31.468 37.9549 32.658 37.9549 34.198C37.9549 35.71 38.3609 36.914 39.1729 37.81C39.9849 38.678 41.0069 39.112 42.2389 39.112C43.4429 39.112 44.4509 38.678 45.2629 37.81C46.1029 36.942 46.5229 35.738 46.5229 34.198ZM90.2318 22.228C93.1998 22.228 95.5238 23.124 97.2038 24.916C98.9118 26.708 99.7658 29.158 99.7658 32.266V46H91.5338V33.358C91.5338 32.098 91.1838 31.118 90.4838 30.418C89.7838 29.718 88.8318 29.368 87.6278 29.368C86.4238 29.368 85.4718 29.718 84.7718 30.418C84.0718 31.118 83.7218 32.098 83.7218 33.358V46H75.4898V33.358C75.4898 32.098 75.1398 31.118 74.4398 30.418C73.7678 29.718 72.8298 29.368 71.6258 29.368C70.3938 29.368 69.4278 29.718 68.7278 30.418C68.0278 31.118 67.6778 32.098 67.6778 33.358V46H59.4458V22.438H67.6778V25.546C68.4058 24.538 69.3438 23.74 70.4918 23.152C71.6678 22.536 73.0118 22.228 74.5238 22.228C76.2598 22.228 77.7998 22.606 79.1438 23.362C80.5158 24.118 81.5938 25.182 82.3778 26.554C83.2178 25.266 84.3238 24.23 85.6958 23.446C87.0678 22.634 88.5798 22.228 90.2318 22.228ZM102.932 34.198C102.932 31.762 103.366 29.634 104.234 27.814C105.13 25.994 106.334 24.594 107.846 23.614C109.386 22.634 111.094 22.144 112.97 22.144C114.594 22.144 115.994 22.466 117.17 23.11C118.346 23.754 119.256 24.622 119.9 25.714V22.438H128.132V46H119.9V42.724C119.256 43.816 118.332 44.684 117.128 45.328C115.952 45.972 114.566 46.294 112.97 46.294C111.094 46.294 109.386 45.804 107.846 44.824C106.334 43.844 105.13 42.444 104.234 40.624C103.366 38.776 102.932 36.634 102.932 34.198ZM119.9 34.198C119.9 32.686 119.48 31.496 118.64 30.628C117.828 29.76 116.82 29.326 115.616 29.326C114.384 29.326 113.362 29.76 112.55 30.628C111.738 31.468 111.332 32.658 111.332 34.198C111.332 35.71 111.738 36.914 112.55 37.81C113.362 38.678 114.384 39.112 115.616 39.112C116.82 39.112 117.828 38.678 118.64 37.81C119.48 36.942 119.9 35.738 119.9 34.198ZM142.004 46H140.674L133.321 34.828V46H131.991V32.719H133.321L140.674 43.872V32.719H142.004V46ZM146.346 33.802V38.761H151.381V39.863H146.346V44.898H151.951V46H145.016V32.7H151.951V33.802H146.346ZM170.684 32.719L166.922 46H165.44L162.096 34.676L158.676 46L157.232 46.019L153.546 32.719H154.971L158.011 44.366L161.412 32.719H162.894L166.2 44.366L169.259 32.719H170.684ZM176.746 46.133C175.872 46.133 175.1 45.981 174.428 45.677C173.77 45.373 173.25 44.9487 172.87 44.404C172.49 43.8593 172.288 43.2513 172.262 42.58H173.668C173.732 43.226 174.017 43.796 174.523 44.29C175.03 44.7713 175.771 45.012 176.746 45.012C177.646 45.012 178.355 44.784 178.874 44.328C179.406 43.8593 179.672 43.2703 179.672 42.561C179.672 41.991 179.527 41.535 179.235 41.193C178.944 40.8383 178.583 40.5787 178.152 40.414C177.722 40.2367 177.126 40.0467 176.366 39.844C175.48 39.6033 174.777 39.369 174.257 39.141C173.738 38.913 173.295 38.5583 172.927 38.077C172.56 37.5957 172.376 36.9433 172.376 36.12C172.376 35.436 172.554 34.828 172.908 34.296C173.263 33.7513 173.763 33.327 174.409 33.023C175.055 32.719 175.796 32.567 176.632 32.567C177.861 32.567 178.849 32.871 179.596 33.479C180.356 34.0743 180.793 34.847 180.907 35.797H179.463C179.375 35.2523 179.077 34.771 178.57 34.353C178.064 33.9223 177.38 33.707 176.518 33.707C175.72 33.707 175.055 33.9223 174.523 34.353C173.991 34.771 173.725 35.3473 173.725 36.082C173.725 36.6393 173.871 37.089 174.162 37.431C174.454 37.773 174.815 38.0327 175.245 38.21C175.689 38.3873 176.284 38.5773 177.031 38.78C177.893 39.0207 178.589 39.2613 179.121 39.502C179.653 39.73 180.103 40.0847 180.47 40.566C180.838 41.0473 181.021 41.6933 181.021 42.504C181.021 43.1247 180.857 43.7137 180.527 44.271C180.198 44.8283 179.71 45.278 179.064 45.62C178.418 45.962 177.646 46.133 176.746 46.133Z" fill="#6AA703"/>
</svg>
