<svg width="181" height="36" viewBox="0 0 181 36" fill="none" xmlns="http://www.w3.org/2000/svg">
<path d="M10.046 0.143999C11.642 0.143999 13.028 0.465999 14.204 1.11C15.408 1.754 16.332 2.622 16.976 3.714V0.437998H25.208V23.748C25.208 25.96 24.788 27.948 23.948 29.712C23.108 31.504 21.792 32.932 20 33.996C18.236 35.06 15.996 35.592 13.28 35.592C9.64 35.592 6.728 34.738 4.544 33.03C2.36 31.322 1.114 28.998 0.806 26.058H8.912C9.08 26.814 9.5 27.402 10.172 27.822C10.844 28.242 11.712 28.452 12.776 28.452C15.576 28.452 16.976 26.884 16.976 23.748V20.724C16.332 21.816 15.408 22.684 14.204 23.328C13.028 23.972 11.642 24.294 10.046 24.294C8.17 24.294 6.462 23.804 4.922 22.824C3.41 21.844 2.206 20.444 1.31 18.624C0.442 16.776 0.00800001 14.634 0.00800001 12.198C0.00800001 9.762 0.442 7.634 1.31 5.814C2.206 3.994 3.41 2.594 4.922 1.614C6.462 0.633999 8.17 0.143999 10.046 0.143999ZM16.976 12.198C16.976 10.686 16.556 9.496 15.716 8.628C14.904 7.76 13.896 7.326 12.692 7.326C11.46 7.326 10.438 7.76 9.626 8.628C8.814 9.468 8.408 10.658 8.408 12.198C8.408 13.71 8.814 14.914 9.626 15.81C10.438 16.678 11.46 17.112 12.692 17.112C13.896 17.112 14.904 16.678 15.716 15.81C16.556 14.942 16.976 13.738 16.976 12.198ZM28.5549 12.198C28.5549 9.762 28.9889 7.634 29.8569 5.814C30.7529 3.994 31.9569 2.594 33.4689 1.614C35.0089 0.633999 36.7169 0.143999 38.5929 0.143999C40.2169 0.143999 41.6169 0.465999 42.7929 1.11C43.9689 1.754 44.8789 2.622 45.5229 3.714V0.437998H53.7549V24H45.5229V20.724C44.8789 21.816 43.9549 22.684 42.7509 23.328C41.5749 23.972 40.1889 24.294 38.5929 24.294C36.7169 24.294 35.0089 23.804 33.4689 22.824C31.9569 21.844 30.7529 20.444 29.8569 18.624C28.9889 16.776 28.5549 14.634 28.5549 12.198ZM45.5229 12.198C45.5229 10.686 45.1029 9.496 44.2629 8.628C43.4509 7.76 42.4429 7.326 41.2389 7.326C40.0069 7.326 38.9849 7.76 38.1729 8.628C37.3609 9.468 36.9549 10.658 36.9549 12.198C36.9549 13.71 37.3609 14.914 38.1729 15.81C38.9849 16.678 40.0069 17.112 41.2389 17.112C42.4429 17.112 43.4509 16.678 44.2629 15.81C45.1029 14.942 45.5229 13.738 45.5229 12.198ZM89.2318 0.227998C92.1998 0.227998 94.5238 1.124 96.2038 2.916C97.9118 4.708 98.7658 7.158 98.7658 10.266V24H90.5338V11.358C90.5338 10.098 90.1838 9.118 89.4838 8.418C88.7838 7.718 87.8318 7.368 86.6278 7.368C85.4238 7.368 84.4718 7.718 83.7718 8.418C83.0718 9.118 82.7218 10.098 82.7218 11.358V24H74.4898V11.358C74.4898 10.098 74.1398 9.118 73.4398 8.418C72.7678 7.718 71.8298 7.368 70.6258 7.368C69.3938 7.368 68.4278 7.718 67.7278 8.418C67.0278 9.118 66.6778 10.098 66.6778 11.358V24H58.4458V0.437998H66.6778V3.546C67.4058 2.538 68.3438 1.74 69.4918 1.152C70.6678 0.535998 72.0118 0.227998 73.5238 0.227998C75.2598 0.227998 76.7998 0.605998 78.1438 1.362C79.5158 2.118 80.5938 3.182 81.3778 4.554C82.2178 3.266 83.3238 2.23 84.6958 1.446C86.0678 0.633999 87.5798 0.227998 89.2318 0.227998ZM101.932 12.198C101.932 9.762 102.366 7.634 103.234 5.814C104.13 3.994 105.334 2.594 106.846 1.614C108.386 0.633999 110.094 0.143999 111.97 0.143999C113.594 0.143999 114.994 0.465999 116.17 1.11C117.346 1.754 118.256 2.622 118.9 3.714V0.437998H127.132V24H118.9V20.724C118.256 21.816 117.332 22.684 116.128 23.328C114.952 23.972 113.566 24.294 111.97 24.294C110.094 24.294 108.386 23.804 106.846 22.824C105.334 21.844 104.13 20.444 103.234 18.624C102.366 16.776 101.932 14.634 101.932 12.198ZM118.9 12.198C118.9 10.686 118.48 9.496 117.64 8.628C116.828 7.76 115.82 7.326 114.616 7.326C113.384 7.326 112.362 7.76 111.55 8.628C110.738 9.468 110.332 10.658 110.332 12.198C110.332 13.71 110.738 14.914 111.55 15.81C112.362 16.678 113.384 17.112 114.616 17.112C115.82 17.112 116.828 16.678 117.64 15.81C118.48 14.942 118.9 13.738 118.9 12.198ZM141.004 24H139.674L132.321 12.828V24H130.991V10.719H132.321L139.674 21.872V10.719H141.004V24ZM145.346 11.802V16.761H150.381V17.863H145.346V22.898H150.951V24H144.016V10.7H150.951V11.802H145.346ZM169.684 10.719L165.922 24H164.44L161.096 12.676L157.676 24L156.232 24.019L152.546 10.719H153.971L157.011 22.366L160.412 10.719H161.894L165.2 22.366L168.259 10.719H169.684ZM175.746 24.133C174.872 24.133 174.1 23.981 173.428 23.677C172.77 23.373 172.25 22.9487 171.87 22.404C171.49 21.8593 171.288 21.2513 171.262 20.58H172.668C172.732 21.226 173.017 21.796 173.523 22.29C174.03 22.7713 174.771 23.012 175.746 23.012C176.646 23.012 177.355 22.784 177.874 22.328C178.406 21.8593 178.672 21.2703 178.672 20.561C178.672 19.991 178.527 19.535 178.235 19.193C177.944 18.8383 177.583 18.5787 177.152 18.414C176.722 18.2367 176.126 18.0467 175.366 17.844C174.48 17.6033 173.777 17.369 173.257 17.141C172.738 16.913 172.295 16.5583 171.927 16.077C171.56 15.5957 171.376 14.9433 171.376 14.12C171.376 13.436 171.554 12.828 171.908 12.296C172.263 11.7513 172.763 11.327 173.409 11.023C174.055 10.719 174.796 10.567 175.632 10.567C176.861 10.567 177.849 10.871 178.596 11.479C179.356 12.0743 179.793 12.847 179.907 13.797H178.463C178.375 13.2523 178.077 12.771 177.57 12.353C177.064 11.9223 176.38 11.707 175.518 11.707C174.72 11.707 174.055 11.9223 173.523 12.353C172.991 12.771 172.725 13.3473 172.725 14.082C172.725 14.6393 172.871 15.089 173.162 15.431C173.454 15.773 173.815 16.0327 174.245 16.21C174.689 16.3873 175.284 16.5773 176.031 16.78C176.893 17.0207 177.589 17.2613 178.121 17.502C178.653 17.73 179.103 18.0847 179.47 18.566C179.838 19.0473 180.021 19.6933 180.021 20.504C180.021 21.1247 179.857 21.7137 179.527 22.271C179.198 22.8283 178.71 23.278 178.064 23.62C177.418 23.962 176.646 24.133 175.746 24.133Z" fill="#226900"/>
</svg>
