<svg width="24" height="24" viewBox="0 0 24 24" fill="none" xmlns="http://www.w3.org/2000/svg">
<path d="M11.7825 19.25C8.985 19.25 5.0775 19.3175 3.65625 16.4742C3.12 15.3875 3 14.1327 3 12.9492H3.00075C3.00075 11.3945 3.432 9.914 4.46325 8.711C4.272 8.1365 4.1745 7.53125 4.1745 6.92225C4.1745 6.12425 4.3545 5.72375 4.722 5C6.402 5 7.4895 5.315 8.7645 6.3065C9.747 6.07325 10.767 5.96525 11.7795 5.96525C12.9008 5.96525 14.019 6.08075 15.1057 6.3365C16.3995 5.3345 17.487 5.00075 19.1858 5.00075C19.5488 5.7245 19.7325 6.125 19.7325 6.923C19.7325 7.53125 19.6387 8.147 19.4437 8.7335C20.4787 9.92525 21 11.3945 21 12.9492C21 14.1327 20.7892 15.3987 20.2425 16.475C18.765 19.3512 14.625 19.25 11.7825 19.25ZM15.7493 11.7575C15.0368 11.7575 14.3505 11.8835 13.6493 11.9802C11.0858 12.3702 9.738 11.7575 8.16675 11.7575C6.4125 11.7575 5.4105 13.1938 5.4105 14.8228C5.4105 18.0845 8.42175 18.5817 11.058 18.5817H12.8655C15.4905 18.5817 18.5055 18.0815 18.5055 14.8228C18.5055 13.1938 17.505 11.7575 15.7493 11.7575V11.7575Z" fill="#226900"/>
<path d="M8.50851 16.8678C7.54101 16.8678 7.13227 15.5988 7.13227 14.8226C7.13227 14.0463 7.54101 12.7773 8.50851 12.7773C9.47601 12.7773 9.88477 14.0463 9.88477 14.8226C9.88477 15.5988 9.47601 16.8678 8.50851 16.8678Z" fill="#226900"/>
<path d="M15.3977 16.8681C14.4302 16.8681 14.0214 15.5991 14.0214 14.8228C14.0214 14.0466 14.4309 12.7783 15.3977 12.7783C16.3644 12.7783 16.7739 14.0473 16.7739 14.8236C16.7739 15.5998 16.3652 16.8681 15.3977 16.8681Z" fill="#226900"/>
</svg>
