<svg width="24" height="24" viewBox="0 0 24 24" fill="none" xmlns="http://www.w3.org/2000/svg">
<path d="M15.375 3H8.625C5.51888 3 3 5.51888 3 8.625V15.375C3 18.4811 5.51888 21 8.625 21H15.375C18.4811 21 21 18.4811 21 15.375V8.625C21 5.51888 18.4811 3 15.375 3ZM19.3125 15.375C19.3125 17.5462 17.5462 19.3125 15.375 19.3125H8.625C6.45375 19.3125 4.6875 17.5462 4.6875 15.375V8.625C4.6875 6.45375 6.45375 4.6875 8.625 4.6875H15.375C17.5462 4.6875 19.3125 6.45375 19.3125 8.625V15.375Z" fill="white"/>
<path d="M12 7.49902C9.51488 7.49902 7.5 9.5139 7.5 11.999C7.5 14.4841 9.51488 16.499 12 16.499C14.4851 16.499 16.5 14.4841 16.5 11.999C16.5 9.5139 14.4851 7.49902 12 7.49902ZM12 14.8115C10.4498 14.8115 9.1875 13.5493 9.1875 11.999C9.1875 10.4476 10.4498 9.18652 12 9.18652C13.5503 9.18652 14.8125 10.4476 14.8125 11.999C14.8125 13.5493 13.5503 14.8115 12 14.8115Z" fill="white"/>
<path d="M16.8375 7.76077C17.1687 7.76077 17.4371 7.49231 17.4371 7.16115C17.4371 6.82998 17.1687 6.56152 16.8375 6.56152C16.5063 6.56152 16.2379 6.82998 16.2379 7.16115C16.2379 7.49231 16.5063 7.76077 16.8375 7.76077Z" fill="white"/>
</svg>
