<svg width="24" height="24" viewBox="0 0 24 24" fill="none" xmlns="http://www.w3.org/2000/svg">
<path fill-rule="evenodd" clip-rule="evenodd" d="M20 20H16.9231V14.3967C16.9231 12.8596 16.2715 12.0022 15.1031 12.0022C13.8315 12.0022 13.0769 12.8956 13.0769 14.3967V20H10V9.59243H13.0769V10.7629C13.0769 10.7629 14.0423 9 16.2177 9C18.3938 9 20 10.3818 20 13.2415C20 16.1004 20 20 20 20V20ZM5.50031 7C4.67151 7 4 6.32819 4 5.4997C4 4.67181 4.67151 4 5.50031 4C6.32849 4 7 4.67181 7 5.4997C7.00061 6.32819 6.32849 7 5.50031 7V7ZM4 20H7V10H4V20Z" fill="#226900"/>
</svg>
