<svg width="138" height="63" viewBox="0 0 138 63" fill="none" xmlns="http://www.w3.org/2000/svg">
<path d="M4.781 51.014C5.243 51.014 5.645 51.122 5.987 51.338C6.329 51.554 6.575 51.827 6.725 52.157V51.086H7.355V56.126C7.355 56.576 7.256 56.975 7.058 57.323C6.866 57.671 6.596 57.938 6.248 58.124C5.9 58.316 5.504 58.412 5.06 58.412C4.43 58.412 3.905 58.262 3.485 57.962C3.071 57.662 2.813 57.254 2.711 56.738H3.332C3.44 57.08 3.644 57.353 3.944 57.557C4.25 57.761 4.622 57.863 5.06 57.863C5.378 57.863 5.663 57.794 5.915 57.656C6.167 57.524 6.365 57.326 6.509 57.062C6.653 56.798 6.725 56.486 6.725 56.126V54.911C6.569 55.247 6.32 55.526 5.978 55.748C5.642 55.964 5.243 56.072 4.781 56.072C4.331 56.072 3.926 55.967 3.566 55.757C3.212 55.547 2.933 55.25 2.729 54.866C2.531 54.482 2.432 54.038 2.432 53.534C2.432 53.03 2.531 52.589 2.729 52.211C2.933 51.827 3.212 51.533 3.566 51.329C3.926 51.119 4.331 51.014 4.781 51.014ZM6.725 53.543C6.725 53.147 6.644 52.799 6.482 52.499C6.32 52.199 6.098 51.968 5.816 51.806C5.54 51.644 5.234 51.563 4.898 51.563C4.55 51.563 4.238 51.641 3.962 51.797C3.686 51.953 3.467 52.181 3.305 52.481C3.149 52.775 3.071 53.126 3.071 53.534C3.071 53.936 3.149 54.29 3.305 54.596C3.467 54.896 3.686 55.127 3.962 55.289C4.238 55.445 4.55 55.523 4.898 55.523C5.234 55.523 5.54 55.442 5.816 55.28C6.098 55.118 6.32 54.887 6.482 54.587C6.644 54.287 6.725 53.939 6.725 53.543ZM8.50524 53.534C8.50524 53.03 8.60424 52.589 8.80224 52.211C9.00624 51.827 9.28524 51.533 9.63924 51.329C9.99924 51.119 10.4042 51.014 10.8542 51.014C11.3222 51.014 11.7242 51.122 12.0602 51.338C12.4022 51.554 12.6482 51.83 12.7982 52.166V51.086H13.4282V56H12.7982V54.911C12.6422 55.247 12.3932 55.526 12.0512 55.748C11.7152 55.964 11.3132 56.072 10.8452 56.072C10.4012 56.072 9.99924 55.967 9.63924 55.757C9.28524 55.547 9.00624 55.25 8.80224 54.866C8.60424 54.482 8.50524 54.038 8.50524 53.534ZM12.7982 53.543C12.7982 53.147 12.7172 52.799 12.5552 52.499C12.3932 52.199 12.1712 51.968 11.8892 51.806C11.6132 51.644 11.3072 51.563 10.9712 51.563C10.6232 51.563 10.3112 51.641 10.0352 51.797C9.75924 51.953 9.54024 52.181 9.37824 52.481C9.22224 52.775 9.14424 53.126 9.14424 53.534C9.14424 53.936 9.22224 54.29 9.37824 54.596C9.54024 54.896 9.75924 55.127 10.0352 55.289C10.3112 55.445 10.6232 55.523 10.9712 55.523C11.3072 55.523 11.6132 55.442 11.8892 55.28C12.1712 55.118 12.3932 54.887 12.5552 54.587C12.7172 54.287 12.7982 53.939 12.7982 53.543ZM20.7165 50.996C21.2925 50.996 21.7605 51.179 22.1205 51.545C22.4865 51.905 22.6695 52.43 22.6695 53.12V56H22.0485V53.192C22.0485 52.658 21.9195 52.25 21.6615 51.968C21.4035 51.686 21.0525 51.545 20.6085 51.545C20.1465 51.545 19.7775 51.698 19.5015 52.004C19.2255 52.31 19.0875 52.754 19.0875 53.336V56H18.4665V53.192C18.4665 52.658 18.3375 52.25 18.0795 51.968C17.8215 51.686 17.4675 51.545 17.0175 51.545C16.5555 51.545 16.1865 51.698 15.9105 52.004C15.6345 52.31 15.4965 52.754 15.4965 53.336V56H14.8665V51.086H15.4965V51.932C15.6525 51.626 15.8745 51.395 16.1625 51.239C16.4505 51.077 16.7715 50.996 17.1255 50.996C17.5515 50.996 17.9235 51.098 18.2415 51.302C18.5655 51.506 18.7995 51.806 18.9435 52.202C19.0755 51.812 19.3005 51.515 19.6185 51.311C19.9425 51.101 20.3085 50.996 20.7165 50.996ZM23.7806 53.534C23.7806 53.03 23.8796 52.589 24.0776 52.211C24.2816 51.827 24.5606 51.533 24.9146 51.329C25.2746 51.119 25.6796 51.014 26.1296 51.014C26.5976 51.014 26.9996 51.122 27.3356 51.338C27.6776 51.554 27.9236 51.83 28.0736 52.166V51.086H28.7036V56H28.0736V54.911C27.9176 55.247 27.6686 55.526 27.3266 55.748C26.9906 55.964 26.5886 56.072 26.1206 56.072C25.6766 56.072 25.2746 55.967 24.9146 55.757C24.5606 55.547 24.2816 55.25 24.0776 54.866C23.8796 54.482 23.7806 54.038 23.7806 53.534ZM28.0736 53.543C28.0736 53.147 27.9926 52.799 27.8306 52.499C27.6686 52.199 27.4466 51.968 27.1646 51.806C26.8886 51.644 26.5826 51.563 26.2466 51.563C25.8986 51.563 25.5866 51.641 25.3106 51.797C25.0346 51.953 24.8156 52.181 24.6536 52.481C24.4976 52.775 24.4196 53.126 24.4196 53.534C24.4196 53.936 24.4976 54.29 24.6536 54.596C24.8156 54.896 25.0346 55.127 25.3106 55.289C25.5866 55.445 25.8986 55.523 26.2466 55.523C26.5826 55.523 26.8886 55.442 27.1646 55.28C27.4466 55.118 27.6686 54.887 27.8306 54.587C27.9926 54.287 28.0736 53.939 28.0736 53.543ZM32.3236 53.534C32.3236 53.03 32.4226 52.589 32.6206 52.211C32.8246 51.827 33.1036 51.533 33.4576 51.329C33.8176 51.119 34.2226 51.014 34.6726 51.014C35.1406 51.014 35.5426 51.122 35.8786 51.338C36.2206 51.554 36.4666 51.83 36.6166 52.166V51.086H37.2466V56H36.6166V54.911C36.4606 55.247 36.2116 55.526 35.8696 55.748C35.5336 55.964 35.1316 56.072 34.6636 56.072C34.2196 56.072 33.8176 55.967 33.4576 55.757C33.1036 55.547 32.8246 55.25 32.6206 54.866C32.4226 54.482 32.3236 54.038 32.3236 53.534ZM36.6166 53.543C36.6166 53.147 36.5356 52.799 36.3736 52.499C36.2116 52.199 35.9896 51.968 35.7076 51.806C35.4316 51.644 35.1256 51.563 34.7896 51.563C34.4416 51.563 34.1296 51.641 33.8536 51.797C33.5776 51.953 33.3586 52.181 33.1966 52.481C33.0406 52.775 32.9626 53.126 32.9626 53.534C32.9626 53.936 33.0406 54.29 33.1966 54.596C33.3586 54.896 33.5776 55.127 33.8536 55.289C34.1296 55.445 34.4416 55.523 34.7896 55.523C35.1256 55.523 35.4316 55.442 35.7076 55.28C35.9896 55.118 36.2116 54.887 36.3736 54.587C36.5356 54.287 36.6166 53.939 36.6166 53.543ZM38.3968 53.543C38.3968 53.033 38.4988 52.589 38.7028 52.211C38.9068 51.827 39.1888 51.533 39.5488 51.329C39.9088 51.119 40.3198 51.014 40.7818 51.014C41.3878 51.014 41.8858 51.164 42.2758 51.464C42.6718 51.764 42.9268 52.172 43.0408 52.688H42.3658C42.2818 52.334 42.0988 52.058 41.8168 51.86C41.5408 51.656 41.1958 51.554 40.7818 51.554C40.4518 51.554 40.1548 51.629 39.8908 51.779C39.6268 51.929 39.4168 52.154 39.2608 52.454C39.1108 52.748 39.0358 53.111 39.0358 53.543C39.0358 53.975 39.1108 54.341 39.2608 54.641C39.4168 54.941 39.6268 55.166 39.8908 55.316C40.1548 55.466 40.4518 55.541 40.7818 55.541C41.1958 55.541 41.5408 55.442 41.8168 55.244C42.0988 55.04 42.2818 54.758 42.3658 54.398H43.0408C42.9268 54.902 42.6718 55.307 42.2758 55.613C41.8798 55.919 41.3818 56.072 40.7818 56.072C40.3198 56.072 39.9088 55.97 39.5488 55.766C39.1888 55.556 38.9068 55.262 38.7028 54.884C38.4988 54.5 38.3968 54.053 38.3968 53.543ZM43.9164 53.534C43.9164 53.03 44.0154 52.589 44.2134 52.211C44.4174 51.827 44.6964 51.533 45.0504 51.329C45.4104 51.119 45.8154 51.014 46.2654 51.014C46.7334 51.014 47.1354 51.122 47.4714 51.338C47.8134 51.554 48.0594 51.83 48.2094 52.166V51.086H48.8394V56H48.2094V54.911C48.0534 55.247 47.8044 55.526 47.4624 55.748C47.1264 55.964 46.7244 56.072 46.2564 56.072C45.8124 56.072 45.4104 55.967 45.0504 55.757C44.6964 55.547 44.4174 55.25 44.2134 54.866C44.0154 54.482 43.9164 54.038 43.9164 53.534ZM48.2094 53.543C48.2094 53.147 48.1284 52.799 47.9664 52.499C47.8044 52.199 47.5824 51.968 47.3004 51.806C47.0244 51.644 46.7184 51.563 46.3824 51.563C46.0344 51.563 45.7224 51.641 45.4464 51.797C45.1704 51.953 44.9514 52.181 44.7894 52.481C44.6334 52.775 44.5554 53.126 44.5554 53.534C44.5554 53.936 44.6334 54.29 44.7894 54.596C44.9514 54.896 45.1704 55.127 45.4464 55.289C45.7224 55.445 46.0344 55.523 46.3824 55.523C46.7184 55.523 47.0244 55.442 47.3004 55.28C47.5824 55.118 47.8044 54.887 47.9664 54.587C48.1284 54.287 48.2094 53.939 48.2094 53.543ZM49.9896 53.534C49.9896 53.03 50.0916 52.589 50.2956 52.211C50.4996 51.827 50.7786 51.533 51.1326 51.329C51.4926 51.119 51.8976 51.014 52.3476 51.014C52.7796 51.014 53.1696 51.119 53.5176 51.329C53.8656 51.539 54.1206 51.812 54.2826 52.148V49.34H54.9126V56H54.2826V54.902C54.1326 55.244 53.8866 55.526 53.5446 55.748C53.2026 55.964 52.8006 56.072 52.3386 56.072C51.8886 56.072 51.4836 55.967 51.1236 55.757C50.7696 55.547 50.4906 55.25 50.2866 54.866C50.0886 54.482 49.9896 54.038 49.9896 53.534ZM54.2826 53.543C54.2826 53.147 54.2016 52.799 54.0396 52.499C53.8776 52.199 53.6556 51.968 53.3736 51.806C53.0976 51.644 52.7916 51.563 52.4556 51.563C52.1076 51.563 51.7956 51.641 51.5196 51.797C51.2436 51.953 51.0246 52.181 50.8626 52.481C50.7066 52.775 50.6286 53.126 50.6286 53.534C50.6286 53.936 50.7066 54.29 50.8626 54.596C51.0246 54.896 51.2436 55.127 51.5196 55.289C51.7956 55.445 52.1076 55.523 52.4556 55.523C52.7916 55.523 53.0976 55.442 53.3736 55.28C53.6556 55.118 53.8776 54.887 54.0396 54.587C54.2016 54.287 54.2826 53.939 54.2826 53.543ZM60.7969 53.291C60.7969 53.507 60.7909 53.672 60.7789 53.786H56.7019C56.7199 54.158 56.8099 54.476 56.9719 54.74C57.1339 55.004 57.3469 55.205 57.6109 55.343C57.8749 55.475 58.1629 55.541 58.4749 55.541C58.8829 55.541 59.2249 55.442 59.5009 55.244C59.7829 55.046 59.9689 54.779 60.0589 54.443H60.7249C60.6049 54.923 60.3469 55.316 59.9509 55.622C59.5609 55.922 59.0689 56.072 58.4749 56.072C58.0129 56.072 57.5989 55.97 57.2329 55.766C56.8669 55.556 56.5789 55.262 56.3689 54.884C56.1649 54.5 56.0629 54.053 56.0629 53.543C56.0629 53.033 56.1649 52.586 56.3689 52.202C56.5729 51.818 56.8579 51.524 57.2239 51.32C57.5899 51.116 58.0069 51.014 58.4749 51.014C58.9429 51.014 59.3509 51.116 59.6989 51.32C60.0529 51.524 60.3229 51.8 60.5089 52.148C60.7009 52.49 60.7969 52.871 60.7969 53.291ZM60.1579 53.273C60.1639 52.907 60.0889 52.595 59.9329 52.337C59.7829 52.079 59.5759 51.884 59.3119 51.752C59.0479 51.62 58.7599 51.554 58.4479 51.554C57.9799 51.554 57.5809 51.704 57.2509 52.004C56.9209 52.304 56.7379 52.727 56.7019 53.273H60.1579ZM67.7995 50.996C68.3755 50.996 68.8435 51.179 69.2035 51.545C69.5695 51.905 69.7525 52.43 69.7525 53.12V56H69.1315V53.192C69.1315 52.658 69.0025 52.25 68.7445 51.968C68.4865 51.686 68.1355 51.545 67.6915 51.545C67.2295 51.545 66.8605 51.698 66.5845 52.004C66.3085 52.31 66.1705 52.754 66.1705 53.336V56H65.5495V53.192C65.5495 52.658 65.4205 52.25 65.1625 51.968C64.9045 51.686 64.5505 51.545 64.1005 51.545C63.6385 51.545 63.2695 51.698 62.9935 52.004C62.7175 52.31 62.5795 52.754 62.5795 53.336V56H61.9495V51.086H62.5795V51.932C62.7355 51.626 62.9575 51.395 63.2455 51.239C63.5335 51.077 63.8545 50.996 64.2085 50.996C64.6345 50.996 65.0065 51.098 65.3245 51.302C65.6485 51.506 65.8825 51.806 66.0265 52.202C66.1585 51.812 66.3835 51.515 66.7015 51.311C67.0255 51.101 67.3915 50.996 67.7995 50.996ZM75.2016 51.086L72.2856 58.313H71.6286L72.5826 55.973L70.5666 51.086H71.2596L72.9336 55.28L74.5536 51.086H75.2016Z" fill="#6AA703"/>
<path d="M1.008 34.198C1.008 31.762 1.442 29.634 2.31 27.814C3.206 25.994 4.41 24.594 5.922 23.614C7.462 22.634 9.17 22.144 11.046 22.144C12.67 22.144 14.07 22.466 15.246 23.11C16.422 23.754 17.332 24.622 17.976 25.714V22.438H26.208V46H17.976V42.724C17.332 43.816 16.408 44.684 15.204 45.328C14.028 45.972 12.642 46.294 11.046 46.294C9.17 46.294 7.462 45.804 5.922 44.824C4.41 43.844 3.206 42.444 2.31 40.624C1.442 38.776 1.008 36.634 1.008 34.198ZM17.976 34.198C17.976 32.686 17.556 31.496 16.716 30.628C15.904 29.76 14.896 29.326 13.692 29.326C12.46 29.326 11.438 29.76 10.626 30.628C9.814 31.468 9.408 32.658 9.408 34.198C9.408 35.71 9.814 36.914 10.626 37.81C11.438 38.678 12.46 39.112 13.692 39.112C14.896 39.112 15.904 38.678 16.716 37.81C17.556 36.942 17.976 35.738 17.976 34.198ZM46.3129 22.228C49.0289 22.228 51.1849 23.138 52.7809 24.958C54.3769 26.75 55.1749 29.186 55.1749 32.266V46H46.9429V33.358C46.9429 32.014 46.5929 30.964 45.8929 30.208C45.1929 29.424 44.2549 29.032 43.0789 29.032C41.8469 29.032 40.8809 29.424 40.1809 30.208C39.4809 30.964 39.1309 32.014 39.1309 33.358V46H30.8989V22.438H39.1309V25.798C39.8589 24.734 40.8389 23.88 42.0709 23.236C43.3029 22.564 44.7169 22.228 46.3129 22.228ZM58.3478 34.198C58.3478 31.762 58.7818 29.634 59.6498 27.814C60.5458 25.994 61.7638 24.594 63.3038 23.614C64.8438 22.634 66.5518 22.144 68.4278 22.144C69.9398 22.144 71.2838 22.466 72.4598 23.11C73.6638 23.726 74.6018 24.58 75.2738 25.672V14.92H83.5478V46H75.2738V42.724C74.6298 43.816 73.7198 44.684 72.5438 45.328C71.3678 45.972 69.9818 46.294 68.3858 46.294C66.5098 46.294 64.8018 45.804 63.2618 44.824C61.7498 43.844 60.5458 42.444 59.6498 40.624C58.7818 38.776 58.3478 36.634 58.3478 34.198ZM75.3158 34.198C75.3158 32.686 74.8958 31.496 74.0558 30.628C73.2438 29.76 72.2358 29.326 71.0318 29.326C69.7998 29.326 68.7778 29.76 67.9658 30.628C67.1538 31.468 66.7478 32.658 66.7478 34.198C66.7478 35.71 67.1538 36.914 67.9658 37.81C68.7778 38.678 69.7998 39.112 71.0318 39.112C72.2358 39.112 73.2438 38.678 74.0558 37.81C74.8958 36.942 75.3158 35.738 75.3158 34.198ZM97.4197 46H96.0897L88.7367 34.828V46H87.4067V32.719H88.7367L96.0897 43.872V32.719H97.4197V46ZM101.762 33.802V38.761H106.797V39.863H101.762V44.898H107.367V46H100.432V32.7H107.367V33.802H101.762ZM126.1 32.719L122.338 46H120.856L117.512 34.676L114.092 46L112.648 46.019L108.962 32.719H110.387L113.427 44.366L116.828 32.719H118.31L121.616 44.366L124.675 32.719H126.1ZM132.162 46.133C131.288 46.133 130.516 45.981 129.844 45.677C129.186 45.373 128.666 44.9487 128.286 44.404C127.906 43.8593 127.704 43.2513 127.678 42.58H129.084C129.148 43.226 129.433 43.796 129.939 44.29C130.446 44.7713 131.187 45.012 132.162 45.012C133.062 45.012 133.771 44.784 134.29 44.328C134.822 43.8593 135.088 43.2703 135.088 42.561C135.088 41.991 134.943 41.535 134.651 41.193C134.36 40.8383 133.999 40.5787 133.568 40.414C133.138 40.2367 132.542 40.0467 131.782 39.844C130.896 39.6033 130.193 39.369 129.673 39.141C129.154 38.913 128.711 38.5583 128.343 38.077C127.976 37.5957 127.792 36.9433 127.792 36.12C127.792 35.436 127.97 34.828 128.324 34.296C128.679 33.7513 129.179 33.327 129.825 33.023C130.471 32.719 131.212 32.567 132.048 32.567C133.277 32.567 134.265 32.871 135.012 33.479C135.772 34.0743 136.209 34.847 136.323 35.797H134.879C134.791 35.2523 134.493 34.771 133.986 34.353C133.48 33.9223 132.796 33.707 131.934 33.707C131.136 33.707 130.471 33.9223 129.939 34.353C129.407 34.771 129.141 35.3473 129.141 36.082C129.141 36.6393 129.287 37.089 129.578 37.431C129.87 37.773 130.231 38.0327 130.661 38.21C131.105 38.3873 131.7 38.5773 132.447 38.78C133.309 39.0207 134.005 39.2613 134.537 39.502C135.069 39.73 135.519 40.0847 135.886 40.566C136.254 41.0473 136.437 41.6933 136.437 42.504C136.437 43.1247 136.273 43.7137 135.943 44.271C135.614 44.8283 135.126 45.278 134.48 45.62C133.834 45.962 133.062 46.133 132.162 46.133Z" fill="#6AA703"/>
</svg>
